<svg width="261" height="43" viewBox="0 0 261 43" fill="none" xmlns="http://www.w3.org/2000/svg">
<path d="M1.13281 11.7969C1.52344 11.4193 1.95312 11.1393 2.42188 10.957C2.90365 10.7747 3.41797 10.6836 3.96484 10.6836H4.16016V8.55469C4.16016 7.03125 4.42057 5.69661 4.94141 4.55078C5.46224 3.40495 6.1849 2.52604 7.10938 1.91406C8.04688 1.30208 9.06901 0.996094 10.1758 0.996094H12.0508C13.1315 0.996094 14.0951 1.19792 14.9414 1.60156C15.7878 2.00521 16.4388 2.53255 16.8945 3.18359C17.3503 3.83464 17.5781 4.53125 17.5781 5.27344C17.5781 5.61198 17.5195 5.98958 17.4023 6.40625C16.9336 8.03385 15.8984 8.88672 14.2969 8.96484L13.9258 9.00391H13.7695C13.6914 9.02995 13.6003 9.06901 13.4961 9.12109C13.3138 9.19922 13.1901 9.30339 13.125 9.43359C12.9948 9.60286 12.9297 9.76562 12.9297 9.92188L12.9688 10.6836H13.2031C13.9062 10.6836 14.5443 10.8594 15.1172 11.2109C15.6901 11.5625 16.1458 12.0443 16.4844 12.6562C16.8359 13.2682 17.0117 13.9453 17.0117 14.6875C16.9987 15.7552 16.6146 16.6667 15.8594 17.4219C15.1042 18.1771 14.2057 18.5547 13.1641 18.5547H12.9297V28.4375C12.9297 29.2578 12.7344 30.013 12.3438 30.7031C11.9531 31.3802 11.4193 31.9206 10.7422 32.3242C10.0781 32.7148 9.34245 32.9102 8.53516 32.9102C7.3112 32.8971 6.26302 32.4609 5.39062 31.6016C4.51823 30.7292 4.08203 29.6615 4.08203 28.3984V18.5156H3.92578C2.79297 18.3464 1.84896 17.8646 1.09375 17.0703C0.364583 16.3672 0 15.5013 0 14.4727C0 13.4049 0.377604 12.513 1.13281 11.7969ZM30.193 32.9688C28.0055 32.9688 26.0068 32.4674 24.1969 31.4648C22.4 30.4622 20.9807 29.1016 19.9391 27.3828C18.8974 25.651 18.3701 23.763 18.357 21.7188C18.357 19.6745 18.8714 17.7734 19.9 16.0156C20.9417 14.2448 22.3674 12.8451 24.1773 11.8164C25.9872 10.7878 27.9924 10.2734 30.193 10.2734C31.7555 10.2734 33.2073 10.5273 34.5484 11.0352C35.8896 11.5299 37.094 12.2396 38.1617 13.1641C38.8128 13.724 39.3792 14.3359 39.8609 15C40.3557 15.6641 40.7594 16.3542 41.0719 17.0703C41.3974 17.7865 41.6383 18.5286 41.7945 19.2969C41.9508 20.0651 42.0289 20.8333 42.0289 21.6016C42.0289 22.8906 41.8076 24.1536 41.3648 25.3906C40.9352 26.6276 40.2841 27.7669 39.4117 28.8086C38.5393 29.8372 37.4911 30.7031 36.2672 31.4062C34.4312 32.4479 32.4065 32.9688 30.193 32.9688ZM27.068 21.6797C27.068 22.7865 27.3674 23.6914 27.9664 24.3945C28.5784 25.0977 29.3206 25.4492 30.193 25.4492C30.2711 25.4492 30.4729 25.4167 30.7984 25.3516C32.2047 25.0651 33.0185 24.1211 33.2398 22.5195C33.2919 22.1029 33.318 21.8099 33.318 21.6406C33.318 20.8724 33.1422 20.2214 32.7906 19.6875C32.1526 18.6198 31.2867 18.0859 30.193 18.0859C29.1122 18.0859 28.2464 18.6198 27.5953 19.6875C27.2437 20.2604 27.068 20.9245 27.068 21.6797ZM57.8664 32.9688C55.6789 32.9688 53.6802 32.4674 51.8703 31.4648C50.0734 30.4622 48.6542 29.1016 47.6125 27.3828C46.5708 25.651 46.0435 23.763 46.0305 21.7188C46.0305 19.6745 46.5448 17.7734 47.5734 16.0156C48.6151 14.2448 50.0409 12.8451 51.8508 11.8164C53.6607 10.7878 55.6659 10.2734 57.8664 10.2734C59.4289 10.2734 60.8807 10.5273 62.2219 11.0352C63.563 11.5299 64.7674 12.2396 65.8352 13.1641C66.4862 13.724 67.0526 14.3359 67.5344 15C68.0292 15.6641 68.4328 16.3542 68.7453 17.0703C69.0708 17.7865 69.3117 18.5286 69.468 19.2969C69.6242 20.0651 69.7023 20.8333 69.7023 21.6016C69.7023 22.8906 69.481 24.1536 69.0383 25.3906C68.6086 26.6276 67.9576 27.7669 67.0852 28.8086C66.2128 29.8372 65.1646 30.7031 63.9406 31.4062C62.1047 32.4479 60.0799 32.9688 57.8664 32.9688ZM54.7414 21.6797C54.7414 22.7865 55.0409 23.6914 55.6398 24.3945C56.2518 25.0977 56.994 25.4492 57.8664 25.4492C57.9445 25.4492 58.1464 25.4167 58.4719 25.3516C59.8781 25.0651 60.6919 24.1211 60.9133 22.5195C60.9654 22.1029 60.9914 21.8099 60.9914 21.6406C60.9914 20.8724 60.8156 20.2214 60.4641 19.6875C59.826 18.6198 58.9602 18.0859 57.8664 18.0859C56.7857 18.0859 55.9198 18.6198 55.2687 19.6875C54.9172 20.2604 54.7414 20.9245 54.7414 21.6797ZM87.7469 11.1523C87.9943 11.2435 88.2221 11.3411 88.4305 11.4453V5.23438C88.4305 4.01042 88.8536 2.96875 89.7 2.10938C90.5594 1.23698 91.6141 0.800781 92.8641 0.800781C93.6583 0.813802 94.394 1.02865 95.0711 1.44531C95.7482 1.84896 96.282 2.39583 96.6727 3.08594C97.0633 3.77604 97.2586 4.51823 97.2586 5.3125V28.3203C97.2586 29.1797 97.0633 29.9479 96.6727 30.625C96.295 31.2891 95.7742 31.8099 95.1102 32.1875C94.4461 32.5651 93.6974 32.7539 92.8641 32.7539L89.1922 30.5664V30.7227C87.9292 32.1289 86.2625 32.832 84.1922 32.832C83.6583 32.832 83.0138 32.7669 82.2586 32.6367C80.1622 32.2331 78.3523 31.2305 76.8289 29.6289C75.3185 28.0143 74.3419 26.0417 73.8992 23.7109C73.769 22.9297 73.7039 22.1875 73.7039 21.4844C73.7039 20.5859 73.795 19.7461 73.9773 18.9648C74.3549 17.3633 74.9799 15.9505 75.8523 14.7266C76.7247 13.5026 77.7924 12.526 79.0555 11.7969C80.5789 10.8984 82.1935 10.4492 83.8992 10.4492C85.1362 10.4492 86.4187 10.6836 87.7469 11.1523ZM82.5516 21.5625C82.5516 22.6302 82.851 23.4961 83.45 24.1602C84.049 24.8242 84.7846 25.1562 85.657 25.1562C86.4253 25.1302 87.0633 24.8633 87.5711 24.3555C88.0919 23.8477 88.4305 23.1185 88.5867 22.168V20.8398C88.2872 19.3034 87.4995 18.3854 86.2234 18.0859C85.9109 18.0339 85.6831 18.0078 85.5398 18.0078C84.7977 18.0078 84.1596 18.2682 83.6258 18.7891C83.0919 19.3099 82.7469 20.0195 82.5906 20.918C82.5646 21.0482 82.5516 21.263 82.5516 21.5625ZM106.573 32.8711C105.349 32.8711 104.301 32.4414 103.428 31.582C102.569 30.7096 102.139 29.6484 102.139 28.3984V14.9219C102.139 14.1016 102.334 13.3529 102.725 12.6758C103.129 11.9857 103.669 11.4453 104.346 11.0547C105.036 10.651 105.791 10.4492 106.612 10.4492C107.419 10.4622 108.161 10.6706 108.838 11.0742C109.515 11.4779 110.049 12.0182 110.44 12.6953C110.843 13.3724 111.045 14.1276 111.045 14.9609V28.3594C111.045 29.6224 110.609 30.6901 109.737 31.5625C108.864 32.4349 107.81 32.8711 106.573 32.8711ZM103.252 8.16406C102.341 7.2526 101.885 6.11979 101.885 4.76562C101.885 3.47656 102.354 2.34375 103.291 1.36719C103.747 0.924479 104.255 0.585938 104.815 0.351562C105.375 0.117188 105.961 0 106.573 0C107.862 0 108.968 0.481771 109.893 1.44531C110.791 2.38281 111.241 3.5026 111.241 4.80469C111.241 6.14583 110.791 7.26562 109.893 8.16406C108.995 9.0625 107.888 9.51172 106.573 9.51172C105.258 9.51172 104.151 9.0625 103.252 8.16406ZM138.855 20.1953C138.855 21.4974 138.576 22.4154 138.016 22.9492C137.456 23.4831 136.525 23.75 135.223 23.75H124.812C124.865 23.8281 125.105 24.082 125.535 24.5117C125.913 24.7982 126.271 25.013 126.609 25.1562C126.961 25.2865 127.43 25.3971 128.016 25.4883C128.602 25.5664 129.311 25.6055 130.145 25.6055C130.952 25.5664 131.974 25.3776 133.211 25.0391C134.161 24.8047 134.832 24.6875 135.223 24.6875C136.277 24.6875 137.117 24.9935 137.742 25.6055C138.38 26.2174 138.699 26.9727 138.699 27.8711C138.699 28.1966 138.673 28.4505 138.621 28.6328C138.478 29.1276 138.25 29.5703 137.938 29.9609C137.638 30.3516 137.234 30.7031 136.727 31.0156C136.232 31.3151 135.529 31.6276 134.617 31.9531C133.497 32.2917 132.352 32.5326 131.18 32.6758C130.359 32.7799 129.48 32.832 128.543 32.832C126.603 32.832 124.819 32.5521 123.191 31.9922C121.577 31.4193 120.19 30.612 119.031 29.5703C117.872 28.5286 116.993 27.3047 116.395 25.8984C115.796 24.4922 115.496 22.9557 115.496 21.2891C115.535 19.8177 115.861 18.4115 116.473 17.0703C117.098 15.7161 117.931 14.5573 118.973 13.5938C120.027 12.6172 121.277 11.849 122.723 11.2891C124.168 10.7292 125.73 10.4492 127.41 10.4492C129.637 10.4883 131.622 11.0026 133.367 11.9922C134.435 12.6172 135.372 13.3919 136.18 14.3164C137 15.2279 137.638 16.1979 138.094 17.2266C138.562 18.2422 138.816 19.2318 138.855 20.1953ZM124.891 19.3945H129.656C129.656 19.2383 129.643 19.1081 129.617 19.0039C129.422 17.7148 128.517 17.0703 126.902 17.0703C125.952 17.3047 125.307 17.9622 124.969 19.043C124.917 19.1992 124.891 19.3164 124.891 19.3945ZM143.931 17.9688C144.673 17.2656 145.546 16.9141 146.548 16.9141H157.779C158.729 16.9141 159.537 17.2721 160.201 17.9883C160.878 18.6914 161.216 19.5508 161.216 20.5664C161.216 21.2174 161.054 21.8229 160.728 22.3828C160.416 22.9297 159.986 23.3659 159.439 23.6914C158.905 24.0039 158.339 24.1602 157.74 24.1602H146.548C145.533 24.1602 144.66 23.8151 143.931 23.125C143.241 22.3307 142.896 21.4648 142.896 20.5273C142.896 19.5508 143.241 18.6979 143.931 17.9688ZM188.734 20.1953C188.734 21.4974 188.454 22.4154 187.894 22.9492C187.334 23.4831 186.403 23.75 185.101 23.75H174.691C174.743 23.8281 174.984 24.082 175.413 24.5117C175.791 24.7982 176.149 25.013 176.488 25.1562C176.839 25.2865 177.308 25.3971 177.894 25.4883C178.48 25.5664 179.189 25.6055 180.023 25.6055C180.83 25.5664 181.852 25.3776 183.089 25.0391C184.04 24.8047 184.71 24.6875 185.101 24.6875C186.155 24.6875 186.995 24.9935 187.62 25.6055C188.258 26.2174 188.577 26.9727 188.577 27.8711C188.577 28.1966 188.551 28.4505 188.499 28.6328C188.356 29.1276 188.128 29.5703 187.816 29.9609C187.516 30.3516 187.113 30.7031 186.605 31.0156C186.11 31.3151 185.407 31.6276 184.495 31.9531C183.376 32.2917 182.23 32.5326 181.058 32.6758C180.238 32.7799 179.359 32.832 178.421 32.832C176.481 32.832 174.697 32.5521 173.07 31.9922C171.455 31.4193 170.068 30.612 168.909 29.5703C167.751 28.5286 166.872 27.3047 166.273 25.8984C165.674 24.4922 165.374 22.9557 165.374 21.2891C165.413 19.8177 165.739 18.4115 166.351 17.0703C166.976 15.7161 167.809 14.5573 168.851 13.5938C169.905 12.6172 171.155 11.849 172.601 11.2891C174.046 10.7292 175.609 10.4492 177.288 10.4492C179.515 10.4883 181.501 11.0026 183.245 11.9922C184.313 12.6172 185.251 13.3919 186.058 14.3164C186.878 15.2279 187.516 16.1979 187.972 17.2266C188.441 18.2422 188.695 19.2318 188.734 20.1953ZM174.769 19.3945H179.534C179.534 19.2383 179.521 19.1081 179.495 19.0039C179.3 17.7148 178.395 17.0703 176.78 17.0703C175.83 17.3047 175.185 17.9622 174.847 19.043C174.795 19.1992 174.769 19.3164 174.769 19.3945ZM193.321 10.8398C193.959 10.5404 194.61 10.3906 195.274 10.3906C195.86 10.3906 196.42 10.5208 196.954 10.7812C197.501 11.0417 197.996 11.4453 198.438 11.9922C198.894 12.526 199.252 13.1706 199.512 13.9258L201.759 20.1953L203.79 14.043C203.959 13.4831 204.226 12.8841 204.591 12.2461C204.942 11.6471 205.424 11.1914 206.036 10.8789C206.648 10.5534 207.299 10.3906 207.989 10.3906C209.317 10.3906 210.45 10.8984 211.387 11.9141C212.117 12.6823 212.481 13.6328 212.481 14.7656C212.481 15.4427 212.332 16.1068 212.032 16.7578L202.188 39.3945C201.238 41.556 199.864 42.6367 198.067 42.6367C197.69 42.6367 197.227 42.5456 196.68 42.3633C195.73 42.0638 194.988 41.5625 194.454 40.8594C193.933 40.1693 193.673 39.375 193.673 38.4766C193.673 37.8776 193.822 37.2656 194.122 36.6406L197.188 30.3125L191.075 16.4453C190.867 15.9766 190.762 15.4557 190.762 14.8828C190.762 14.0234 190.99 13.2292 191.446 12.5C191.902 11.7578 192.527 11.2044 193.321 10.8398ZM237.674 20.1953C237.674 21.4974 237.394 22.4154 236.834 22.9492C236.274 23.4831 235.343 23.75 234.041 23.75H223.631C223.683 23.8281 223.924 24.082 224.354 24.5117C224.732 24.7982 225.09 25.013 225.428 25.1562C225.78 25.2865 226.248 25.3971 226.834 25.4883C227.42 25.5664 228.13 25.6055 228.963 25.6055C229.771 25.5664 230.793 25.3776 232.03 25.0391C232.98 24.8047 233.651 24.6875 234.041 24.6875C235.096 24.6875 235.936 24.9935 236.561 25.6055C237.199 26.2174 237.518 26.9727 237.518 27.8711C237.518 28.1966 237.492 28.4505 237.44 28.6328C237.297 29.1276 237.069 29.5703 236.756 29.9609C236.457 30.3516 236.053 30.7031 235.545 31.0156C235.051 31.3151 234.347 31.6276 233.436 31.9531C232.316 32.2917 231.17 32.5326 229.998 32.6758C229.178 32.7799 228.299 32.832 227.362 32.832C225.422 32.832 223.638 32.5521 222.01 31.9922C220.396 31.4193 219.009 30.612 217.85 29.5703C216.691 28.5286 215.812 27.3047 215.213 25.8984C214.614 24.4922 214.315 22.9557 214.315 21.2891C214.354 19.8177 214.679 18.4115 215.291 17.0703C215.916 15.7161 216.75 14.5573 217.791 13.5938C218.846 12.6172 220.096 11.849 221.541 11.2891C222.987 10.7292 224.549 10.4492 226.229 10.4492C228.455 10.4883 230.441 11.0026 232.186 11.9922C233.254 12.6172 234.191 13.3919 234.998 14.3164C235.819 15.2279 236.457 16.1979 236.913 17.2266C237.381 18.2422 237.635 19.2318 237.674 20.1953ZM223.709 19.3945H228.475C228.475 19.2383 228.462 19.1081 228.436 19.0039C228.241 17.7148 227.336 17.0703 225.721 17.0703C224.771 17.3047 224.126 17.9622 223.788 19.043C223.735 19.1992 223.709 19.3164 223.709 19.3945ZM243.688 31.3281C241.969 30.2604 241.109 29.1081 241.109 27.8711C241.109 27.4935 241.168 27.1615 241.285 26.875C241.507 26.1719 241.923 25.6185 242.535 25.2148C243.147 24.7982 243.889 24.5898 244.762 24.5898C245.296 24.5898 245.947 24.7135 246.715 24.9609L247.516 25.1953L248.082 25.3906C248.967 25.7552 249.768 25.9831 250.484 26.0742H250.719H251.207C251.559 26.0742 251.793 25.957 251.91 25.7227C251.91 25.319 251.767 25.026 251.48 24.8438C251.467 24.8307 251.441 24.8177 251.402 24.8047C251.363 24.7786 251.324 24.7591 251.285 24.7461C251.259 24.7201 251.233 24.7005 251.207 24.6875L250.836 24.5508L250.035 24.3555L249 24.043L248.238 23.8477C247.04 23.5221 246.044 23.1706 245.25 22.793C244.469 22.4023 243.85 21.9661 243.395 21.4844C242.952 21.0026 242.581 20.4167 242.281 19.7266C241.982 18.9844 241.832 18.2357 241.832 17.4805C241.832 16.2305 242.229 15.0586 243.023 13.9648C243.818 12.8581 244.951 11.9792 246.422 11.3281C247.906 10.6771 249.632 10.3516 251.598 10.3516C253.121 10.3516 254.482 10.5143 255.68 10.8398C257.568 11.3607 258.85 12.0703 259.527 12.9688C259.866 13.4245 260.035 13.9844 260.035 14.6484C260.035 15.2865 259.833 15.8789 259.43 16.4258C259.026 16.9596 258.479 17.3112 257.789 17.4805C257.477 17.5586 257.158 17.5977 256.832 17.5977C256.324 17.5977 255.66 17.4935 254.84 17.2852L253.629 16.9922L253.043 16.8359L252.398 16.7188C252.19 16.6667 252.04 16.6406 251.949 16.6406C251.181 16.6406 250.745 16.6536 250.641 16.6797L250.562 16.7578L250.445 16.875C250.354 16.9661 250.309 17.0508 250.309 17.1289C250.309 17.2982 250.445 17.4805 250.719 17.6758C250.771 17.7018 250.816 17.7279 250.855 17.7539C250.895 17.7799 250.94 17.806 250.992 17.832L251.363 17.9688L251.949 18.1641L253.355 18.6328L254.352 18.9258L255.23 19.2383C256.064 19.4987 256.949 19.9414 257.887 20.5664C258.772 21.1784 259.443 21.9401 259.898 22.8516C260.367 23.75 260.602 24.681 260.602 25.6445C260.602 27.6758 259.697 29.4206 257.887 30.8789C256.207 32.2331 253.961 32.9102 251.148 32.9102C250.784 32.9102 250.198 32.8841 249.391 32.832C246.982 32.6497 245.081 32.1484 243.688 31.3281Z" fill="#F06515"/>
</svg>
